<svg xmlns="http://www.w3.org/2000/svg" width="29" height="32" viewBox="0 0 29 32">
  <g fill="#FFFFFF" fill-rule="evenodd">
    <path d="M12.6183623 3.51018667C12.5183333 4.27349333 11.7912319 4.83157333 11.0439565 4.71509333 10.3118116 4.6016 9.77678261 3.90314667 9.85201449 3.1616 9.92766667 2.41664 10.6732609 1.82485333 11.4133913 1.92 12.1703333 2.01984 12.7188116 2.74517333 12.6183623 3.51018667L12.6183623 3.51018667zM16.1597246 5.13493333C16.0596957 5.89824 15.3321739 6.45674667 14.5853188 6.33984 13.8531739 6.22677333 13.3181449 5.52832 13.3933768 4.78677333 13.469029 4.04181333 14.2142029 3.45002667 14.9547536 3.54517333 15.7116957 3.64330667 16.2601739 4.36821333 16.1597246 5.13493333L16.1597246 5.13493333zM19.142942 1.77664C19.042913 2.53994667 18.3153913 3.09845333 17.5685362 2.98154667 16.8363913 2.86848 16.300942 2.17002667 16.3765942 1.42848 16.4522464.68352 17.1974203.0917333333 17.937971.18688 18.6932319.285013333 19.242971 1.00992 19.142942 1.77664L19.142942 1.77664zM28.1102464 25.6315733C27.8164638 25.1515733 27.4962029 24.6715733 27.212087 24.24832 27.0675072 24.0315733 26.9233478 23.8148267 26.7804493 23.5968L24.6558841 20.3515733C23.0339855 17.8752 21.3608116 15.31648 19.7094928 12.8034133 19.5712174 12.5934933 19.5186812 12.4181333 19.5203623 12.1783467 19.527087 11.4752 19.5304493 10.4251733 19.5321304 9.05813333 19.5321304 8.6848 19.8326377 8.38016 20.1987101 8.38016 20.8337681 8.37845333 21.0489565 8.37162667 21.0754348 8.37162667 21.5528841 8.35669333 21.9290435 7.95008 21.9160145 7.46496 21.9025652 6.98666667 21.5217826 6.61162667 21.0228986 6.61162667 20.9981014 6.61162667 20.7845942 6.61845333 20.197029 6.61845333 18.8752174 6.62186667 17.8001159 7.71669333 17.7984348 9.05813333 17.7967536 10.4200533 17.7933913 11.46496 17.7866667 12.1617067 17.7803623 12.7581867 17.9329275 13.27488 18.2662174 13.78176 19.9162754 16.2948267 21.589029 18.8501333 23.2096667 21.3265067L25.3338116 24.57344C25.4800725 24.7965867 25.6280145 25.0167467 25.7902464 25.2599467 26.0743623 25.6866133 26.3681449 26.1265067 26.6358696 26.5634133 27.1923333 27.4683733 27.2793333 29.2032 26.1613623 29.9716267 26.0974783 30.0168533 26.0003913 30.0484267 25.9545797 30.0484267 25.2812754 30.0599467 24.6016667 30.0616533 23.9271014 30.0616533L21.9471159 30.05824 14.5311014 30.0599467 7.0512029 30.05824 5.07289855 30.0616533C4.39833333 30.0616533 3.71704348 30.05824 3.04542029 30.0484267 2.9996087 30.0484267 2.90252174 30.0151467 2.83695652 29.9716267 1.71898551 29.2049067 1.80766667 27.4683733 2.36244928 26.5634133 2.63521739 26.1184 2.93362319 25.6699733 3.22446377 25.23648 3.37198551 25.0167467 3.51992754 24.79488 3.66450725 24.57344L5.71173913 21.4468267C7.35675362 18.9333333 9.05766667 16.3349333 10.7337826 13.7834667 11.0670725 13.2765867 11.2196377 12.7616 11.2133333 12.16512 11.2066087 11.4717867 11.2032464 10.4251733 11.2015652 9.05344 11.2015652 7.70816 10.1214203 6.61333333 8.79666667 6.61333333L7.83924638 6.61333333C7.3617971 6.61333333 6.97092754 7.00842667 6.97092754 7.49482667 6.97092754 7.97994667 7.36011594 8.37674667 7.83924638 8.37674667L8.79666667 8.37674667C9.16610145 8.37674667 9.46618841 8.68181333 9.46618841 9.05685333 9.46786957 10.43328 9.47123188 11.48672 9.47795652 12.1851733 9.48131884 12.4232533 9.42710145 12.5981867 9.28924638 12.8085333 7.73921739 15.1684267 6.16817391 17.5684267 4.63957971 19.9031467L2.21786957 23.6014933C2.0753913 23.81824 1.93081159 24.0366933 1.78623188 24.25344 1.4874058 24.70016 1.1805942 25.1601067.888072464 25.6349867.390869565 26.4465067.150884058 27.5383467.249652174 28.5550933.366072464 29.77664.938927536 30.7985067 1.86356522 31.4333867 2.1997971 31.66336 2.63017391 31.80672 3.016 31.81312 3.70233333 31.82336 4.39328986 31.8267733 5.07794203 31.8267733L7.0512029 31.82336 21.9471159 31.82336 23.8892754 31.8267733C24.581913 31.8267733 25.2846377 31.82336 25.9823188 31.81312 26.3681449 31.80672 26.7985217 31.6650667 27.1334928 31.4333867 28.0577101 30.7985067 28.6322464 29.77664 28.7469855 28.5550933 28.8474348 27.5332267 28.6074493 26.4418133 28.1102464 25.6315733L28.1102464 25.6315733z"/>
    <path d="M3.80866667,27.4752 C3.6956087,27.65824 3.63004348,28.04352 3.69056522,28.3268267 C4.09782609,28.3298133 4.54753623,28.3332267 5.08130435,28.3332267 L7.0512029,28.3298133 L14.5311014,28.33152 L21.9471159,28.3298133 L23.9170145,28.3332267 C24.4507826,28.3332267 24.9004928,28.33152 25.3077536,28.3268267 C25.3682754,28.0448 25.3027101,27.6599467 25.1913333,27.4781867 C24.9383188,27.0651733 24.6525217,26.6385067 24.3784928,26.2250667 C24.2158406,25.9818667 24.0666377,25.7565867 23.9170145,25.5300267 L19.0147536,18.0433067 C18.9327971,18.0381867 18.8537826,18.0317867 18.781913,18.0266667 L18.6915507,18.01984 C18.3498551,17.9950933 18.0102609,17.9332267 17.6815942,17.8368 C17.0217391,17.64352 16.4060145,17.3098667 15.9004058,16.8750933 C15.7394348,16.7351467 15.6377246,16.71168 15.4801159,16.8315733 C15.3931159,16.8981333 15.3128406,16.97152 15.2304638,17.0449067 C15.1287536,17.13664 15.0270435,17.2266667 14.9186087,17.3115733 C14.8038696,17.4016 14.6773623,17.48352 14.5458116,17.5552 C14.0402029,17.82656 13.4837391,17.9515733 12.786058,17.9515733 C12.4216667,17.9515733 12.0618986,17.9182933 11.7122174,17.88672 C11.0918696,17.8299733 10.5072464,17.7949867 10.081913,17.8948267 L5.07962319,25.53344 C4.93168116,25.7582933 4.78247826,25.9831467 4.6315942,26.2084267 L4.60175362,26.2532267 C4.33276812,26.6568533 4.05663768,27.0715733 3.80866667,27.4752 L3.80866667,27.4752 Z"/>
  </g>
</svg>
