<svg xmlns="http://www.w3.org/2000/svg" width="210" height="32" viewBox="0 0 210 32">
  <g fill="none" fill-rule="evenodd">
    <path fill="#FA782B" d="M12.6183623 3.51018667C12.5183333 4.27349333 11.7912319 4.83157333 11.0439565 4.71509333 10.3118116 4.6016 9.77678261 3.90314667 9.85201449 3.1616 9.92766667 2.41664 10.6732609 1.82485333 11.4133913 1.92 12.1703333 2.01984 12.7188116 2.74517333 12.6183623 3.51018667L12.6183623 3.51018667zM16.1597246 5.13493333C16.0596957 5.89824 15.3321739 6.45674667 14.5853188 6.33984 13.8531739 6.22677333 13.3181449 5.52832 13.3933768 4.78677333 13.469029 4.04181333 14.2142029 3.45002667 14.9547536 3.54517333 15.7116957 3.64330667 16.2601739 4.36821333 16.1597246 5.13493333L16.1597246 5.13493333zM19.142942 1.77664C19.042913 2.53994667 18.3153913 3.09845333 17.5685362 2.98154667 16.8363913 2.86848 16.300942 2.17002667 16.3765942 1.42848 16.4522464.68352 17.1974203.0917333333 17.937971.18688 18.6932319.285013333 19.242971 1.00992 19.142942 1.77664L19.142942 1.77664z"/>
    <path fill="#24E29E" d="M28.1102464,25.6315733 C27.8164638,25.1515733 27.4962029,24.6715733 27.212087,24.24832 C27.0675072,24.0315733 26.9233478,23.8148267 26.7804493,23.5968 L24.6558841,20.3515733 C23.0339855,17.8752 21.3608116,15.31648 19.7094928,12.8034133 C19.5712174,12.5934933 19.5186812,12.4181333 19.5203623,12.1783467 C19.527087,11.4752 19.5304493,10.4251733 19.5321304,9.05813333 C19.5321304,8.6848 19.8326377,8.38016 20.1987101,8.38016 C20.8337681,8.37845333 21.0489565,8.37162667 21.0754348,8.37162667 C21.5528841,8.35669333 21.9290435,7.95008 21.9160145,7.46496 C21.9025652,6.98666667 21.5217826,6.61162667 21.0228986,6.61162667 C20.9981014,6.61162667 20.7845942,6.61845333 20.197029,6.61845333 C18.8752174,6.62186667 17.8001159,7.71669333 17.7984348,9.05813333 C17.7967536,10.4200533 17.7933913,11.46496 17.7866667,12.1617067 C17.7803623,12.7581867 17.9329275,13.27488 18.2662174,13.78176 C19.9162754,16.2948267 21.589029,18.8501333 23.2096667,21.3265067 L25.3338116,24.57344 C25.4800725,24.7965867 25.6280145,25.0167467 25.7902464,25.2599467 C26.0743623,25.6866133 26.3681449,26.1265067 26.6358696,26.5634133 C27.1923333,27.4683733 27.2793333,29.2032 26.1613623,29.9716267 C26.0974783,30.0168533 26.0003913,30.0484267 25.9545797,30.0484267 C25.2812754,30.0599467 24.6016667,30.0616533 23.9271014,30.0616533 L21.9471159,30.05824 L14.5311014,30.0599467 L7.0512029,30.05824 L5.07289855,30.0616533 C4.39833333,30.0616533 3.71704348,30.05824 3.04542029,30.0484267 C2.9996087,30.0484267 2.90252174,30.0151467 2.83695652,29.9716267 C1.71898551,29.2049067 1.80766667,27.4683733 2.36244928,26.5634133 C2.63521739,26.1184 2.93362319,25.6699733 3.22446377,25.23648 C3.37198551,25.0167467 3.51992754,24.79488 3.66450725,24.57344 L5.71173913,21.4468267 C7.35675362,18.9333333 9.05766667,16.3349333 10.7337826,13.7834667 C11.0670725,13.2765867 11.2196377,12.7616 11.2133333,12.16512 C11.2066087,11.4717867 11.2032464,10.4251733 11.2015652,9.05344 C11.2015652,7.70816 10.1214203,6.61333333 8.79666667,6.61333333 L7.83924638,6.61333333 C7.3617971,6.61333333 6.97092754,7.00842667 6.97092754,7.49482667 C6.97092754,7.97994667 7.36011594,8.37674667 7.83924638,8.37674667 L8.79666667,8.37674667 C9.16610145,8.37674667 9.46618841,8.68181333 9.46618841,9.05685333 C9.46786957,10.43328 9.47123188,11.48672 9.47795652,12.1851733 C9.48131884,12.4232533 9.42710145,12.5981867 9.28924638,12.8085333 C7.73921739,15.1684267 6.16817391,17.5684267 4.63957971,19.9031467 L2.21786957,23.6014933 C2.0753913,23.81824 1.93081159,24.0366933 1.78623188,24.25344 C1.4874058,24.70016 1.1805942,25.1601067 0.888072464,25.6349867 C0.390869565,26.4465067 0.150884058,27.5383467 0.249652174,28.5550933 C0.366072464,29.77664 0.938927536,30.7985067 1.86356522,31.4333867 C2.1997971,31.66336 2.63017391,31.80672 3.016,31.81312 C3.70233333,31.82336 4.39328986,31.8267733 5.07794203,31.8267733 L7.0512029,31.82336 L21.9471159,31.82336 L23.8892754,31.8267733 C24.581913,31.8267733 25.2846377,31.82336 25.9823188,31.81312 C26.3681449,31.80672 26.7985217,31.6650667 27.1334928,31.4333867 C28.0577101,30.7985067 28.6322464,29.77664 28.7469855,28.5550933 C28.8474348,27.5332267 28.6074493,26.4418133 28.1102464,25.6315733 L28.1102464,25.6315733 Z"/>
    <path fill="#FA782B" d="M3.80866667,27.4752 C3.6956087,27.65824 3.63004348,28.04352 3.69056522,28.3268267 C4.09782609,28.3298133 4.54753623,28.3332267 5.08130435,28.3332267 L7.0512029,28.3298133 L14.5311014,28.33152 L21.9471159,28.3298133 L23.9170145,28.3332267 C24.4507826,28.3332267 24.9004928,28.33152 25.3077536,28.3268267 C25.3682754,28.0448 25.3027101,27.6599467 25.1913333,27.4781867 C24.9383188,27.0651733 24.6525217,26.6385067 24.3784928,26.2250667 C24.2158406,25.9818667 24.0666377,25.7565867 23.9170145,25.5300267 L19.0147536,18.0433067 C18.9327971,18.0381867 18.8537826,18.0317867 18.781913,18.0266667 L18.6915507,18.01984 C18.3498551,17.9950933 18.0102609,17.9332267 17.6815942,17.8368 C17.0217391,17.64352 16.4060145,17.3098667 15.9004058,16.8750933 C15.7394348,16.7351467 15.6377246,16.71168 15.4801159,16.8315733 C15.3931159,16.8981333 15.3128406,16.97152 15.2304638,17.0449067 C15.1287536,17.13664 15.0270435,17.2266667 14.9186087,17.3115733 C14.8038696,17.4016 14.6773623,17.48352 14.5458116,17.5552 C14.0402029,17.82656 13.4837391,17.9515733 12.786058,17.9515733 C12.4216667,17.9515733 12.0618986,17.9182933 11.7122174,17.88672 C11.0918696,17.8299733 10.5072464,17.7949867 10.081913,17.8948267 L5.07962319,25.53344 C4.93168116,25.7582933 4.78247826,25.9831467 4.6315942,26.2084267 L4.60175362,26.2532267 C4.33276812,26.6568533 4.05663768,27.0715733 3.80866667,27.4752 L3.80866667,27.4752 Z"/>
    <path fill="#24E29E" d="M52.40625,19.375 L41.796875,19.375 L41.796875,30 L39.875,30 L39.875,7.25 L53.96875,7.25 L53.96875,8.890625 L41.796875,8.890625 L41.796875,17.734375 L52.40625,17.734375 L52.40625,19.375 Z M64.44375,14.6875 C64.0479147,14.614583 63.6260439,14.578125 63.178125,14.578125 C62.5427052,14.578125 61.9697942,14.6718741 61.459375,14.859375 C60.9489558,15.0468759 60.4984394,15.3098941 60.1078125,15.6484375 C59.7171855,15.9869809 59.3890638,16.3880185 59.1234375,16.8515625 C58.8578112,17.3151065 58.6468758,17.8281222 58.490625,18.390625 L58.490625,30 L56.63125,30 L56.63125,13.09375 L58.459375,13.09375 L58.490625,15.78125 C58.9489606,14.854162 59.5713502,14.1223985 60.3578125,13.5859375 C61.1442748,13.0494765 62.1104109,12.78125 63.25625,12.78125 C63.4854178,12.78125 63.7197905,12.8020831 63.959375,12.84375 C64.1989595,12.8854169 64.3760411,12.9322914 64.490625,12.984375 L64.44375,14.6875 Z M65.653125,21.296875 C65.653125,20.0677022 65.8328107,18.9322969 66.1921875,17.890625 C66.5515643,16.8489531 67.0593717,15.9505246 67.715625,15.1953125 C68.3718783,14.4401004 69.163537,13.8489605 70.090625,13.421875 C71.017713,12.9947895 72.0489526,12.78125 73.184375,12.78125 C74.3406308,12.78125 75.3848912,12.9947895 76.3171875,13.421875 C77.2494838,13.8489605 78.0437467,14.4401004 78.7,15.1953125 C79.3562533,15.9505246 79.8614566,16.8489531 80.215625,17.890625 C80.5697934,18.9322969 80.746875,20.0677022 80.746875,21.296875 L80.746875,21.8125 C80.746875,23.0416728 80.5697934,24.1770781 80.215625,25.21875 C79.8614566,26.2604219 79.3562533,27.1588504 78.7,27.9140625 C78.0437467,28.6692746 77.252088,29.2578104 76.325,29.6796875 C75.397912,30.1015646 74.3614641,30.3125 73.215625,30.3125 C72.0697859,30.3125 71.033338,30.1015646 70.10625,29.6796875 C69.179162,29.2578104 68.3848991,28.6692746 67.7234375,27.9140625 C67.0619758,27.1588504 66.5515643,26.2604219 66.1921875,25.21875 C65.8328107,24.1770781 65.653125,23.0416728 65.653125,21.8125 L65.653125,21.296875 Z M67.528125,21.8125 C67.528125,22.739588 67.6531237,23.6223916 67.903125,24.4609375 C68.1531262,25.2994834 68.5177059,26.033851 68.996875,26.6640625 C69.4760441,27.294274 70.0697881,27.7968731 70.778125,28.171875 C71.4864619,28.5468769 72.2989537,28.734375 73.215625,28.734375 C74.1322962,28.734375 74.942184,28.5468769 75.6453125,28.171875 C76.348441,27.7968731 76.9395809,27.294274 77.41875,26.6640625 C77.8979191,26.033851 78.2624987,25.2994834 78.5125,24.4609375 C78.7625012,23.6223916 78.8875,22.739588 78.8875,21.8125 L78.8875,21.296875 C78.8875,20.3906205 78.7625012,19.5182334 78.5125,18.6796875 C78.2624987,17.8411416 77.8979191,17.1041698 77.41875,16.46875 C76.9395809,15.8333302 76.3432327,15.3255227 75.6296875,14.9453125 C74.9161423,14.5651023 74.1010462,14.375 73.184375,14.375 C72.2781205,14.375 71.473441,14.5651023 70.7703125,14.9453125 C70.067184,15.3255227 69.4760441,15.8333302 68.996875,16.46875 C68.5177059,17.1041698 68.1531262,17.8411416 67.903125,18.6796875 C67.6531237,19.5182334 67.528125,20.3906205 67.528125,21.296875 L67.528125,21.8125 Z M85.9875,13.09375 L86.05,15.984375 C86.3416681,15.5052059 86.6776022,15.0677103 87.0578125,14.671875 C87.4380227,14.2760397 87.8624976,13.9375014 88.33125,13.65625 C88.8000023,13.3749986 89.3052056,13.1588549 89.846875,13.0078125 C90.3885444,12.8567701 90.9614553,12.78125 91.565625,12.78125 C92.4093792,12.78125 93.16458,12.8958322 93.83125,13.125 C94.49792,13.3541678 95.0630185,13.7187475 95.5265625,14.21875 C95.9901065,14.7187525 96.3442696,15.3619752 96.5890625,16.1484375 C96.8338554,16.9348998 96.95625,17.8854111 96.95625,19 L96.95625,30 L95.096875,30 L95.096875,18.984375 C95.096875,18.1093706 95.0031259,17.3802113 94.815625,16.796875 C94.628124,16.2135387 94.3625017,15.7447934 94.01875,15.390625 C93.6749983,15.0364566 93.2557316,14.7838549 92.7609375,14.6328125 C92.2661433,14.4817701 91.7166697,14.40625 91.1125,14.40625 C90.44583,14.40625 89.8416694,14.518228 89.3,14.7421875 C88.7583306,14.966147 88.2791687,15.2656231 87.8625,15.640625 C87.4458312,16.0156269 87.0864598,16.4453101 86.784375,16.9296875 C86.4822901,17.4140649 86.2427092,17.9114558 86.065625,18.421875 L86.065625,30 L84.20625,30 L84.20625,13.09375 L85.9875,13.09375 Z M104.290625,8.765625 L104.290625,13.09375 L107.790625,13.09375 L107.790625,14.625 L104.290625,14.625 L104.290625,25.890625 C104.290625,26.484378 104.35052,26.9609357 104.470312,27.3203125 C104.590105,27.6796893 104.751561,27.9609365 104.954687,28.1640625 C105.157813,28.3671885 105.392186,28.5026038 105.657812,28.5703125 C105.923439,28.6380212 106.202082,28.671875 106.49375,28.671875 C106.775001,28.671875 107.045832,28.653646 107.30625,28.6171875 C107.566668,28.580729 107.801041,28.5468752 108.009375,28.515625 L108.0875,30.046875 C107.858332,30.1302088 107.558856,30.1953123 107.189062,30.2421875 C106.819269,30.2890627 106.452085,30.3125 106.0875,30.3125 C105.556247,30.3125 105.064065,30.2421882 104.610937,30.1015625 C104.15781,29.9609368 103.769793,29.7187517 103.446875,29.375 C103.123957,29.0312483 102.871355,28.5755237 102.689062,28.0078125 C102.50677,27.4401013 102.415625,26.7343792 102.415625,25.890625 L102.415625,14.625 L99.30625,14.625 L99.30625,13.09375 L102.415625,13.09375 L102.415625,8.765625 L104.290625,8.765625 Z M117.8125,30.3125 C116.708328,30.3125 115.692713,30.1067729 114.765625,29.6953125 C113.838537,29.2838521 113.039066,28.7109412 112.367187,27.9765625 C111.695309,27.2421838 111.171877,26.3697967 110.796875,25.359375 C110.421873,24.3489533 110.234375,23.2395894 110.234375,22.03125 L110.234375,21.359375 C110.234375,20.0572852 110.429686,18.8776095 110.820312,17.8203125 C111.210939,16.7630155 111.73958,15.8619829 112.40625,15.1171875 C113.07292,14.3723921 113.841141,13.796877 114.710937,13.390625 C115.580733,12.984373 116.499995,12.78125 117.46875,12.78125 C118.541672,12.78125 119.494787,12.9739564 120.328125,13.359375 C121.161462,13.7447936 121.861976,14.2812466 122.429687,14.96875 C122.997399,15.6562534 123.427082,16.4739536 123.71875,17.421875 C124.010418,18.3697964 124.15625,19.4062444 124.15625,20.53125 L124.15625,21.671875 L112.09375,21.671875 L112.09375,22.03125 C112.09375,22.958338 112.234374,23.8307251 112.515625,24.6484375 C112.796876,25.4661499 113.192706,26.1770803 113.703125,26.78125 C114.213544,27.3854197 114.822913,27.8619774 115.53125,28.2109375 C116.239587,28.5598976 117.026037,28.734375 117.890625,28.734375 C118.89063,28.734375 119.773434,28.5520852 120.539062,28.1875 C121.304691,27.8229148 121.999997,27.2395873 122.625,26.4375 L123.796875,27.328125 C123.515624,27.734377 123.190106,28.1197898 122.820312,28.484375 C122.450519,28.8489602 122.020836,29.1666653 121.53125,29.4375 C121.041664,29.7083347 120.489586,29.9218742 119.875,30.078125 C119.260414,30.2343758 118.57292,30.3125 117.8125,30.3125 L117.8125,30.3125 Z M117.46875,14.375 C116.760413,14.375 116.10417,14.5104153 115.5,14.78125 C114.89583,15.0520847 114.361981,15.4374975 113.898437,15.9375 C113.434893,16.4375025 113.054689,17.039059 112.757812,17.7421875 C112.460936,18.445316 112.260417,19.2239541 112.15625,20.078125 L122.296875,20.078125 L122.296875,19.875 C122.276042,19.1666631 122.161459,18.4817741 121.953125,17.8203125 C121.744791,17.1588509 121.440106,16.5729192 121.039062,16.0625 C120.638019,15.5520808 120.140628,15.1432307 119.546875,14.8359375 C118.953122,14.5286443 118.260421,14.375 117.46875,14.375 L117.46875,14.375 Z M129.178125,13.09375 L129.240625,15.984375 C129.532293,15.5052059 129.868227,15.0677103 130.248437,14.671875 C130.628648,14.2760397 131.053123,13.9375014 131.521875,13.65625 C131.990627,13.3749986 132.495831,13.1588549 133.0375,13.0078125 C133.579169,12.8567701 134.15208,12.78125 134.75625,12.78125 C135.600004,12.78125 136.355205,12.8958322 137.021875,13.125 C137.688545,13.3541678 138.253643,13.7187475 138.717187,14.21875 C139.180731,14.7187525 139.534895,15.3619752 139.779687,16.1484375 C140.02448,16.9348998 140.146875,17.8854111 140.146875,19 L140.146875,30 L138.2875,30 L138.2875,18.984375 C138.2875,18.1093706 138.193751,17.3802113 138.00625,16.796875 C137.818749,16.2135387 137.553127,15.7447934 137.209375,15.390625 C136.865623,15.0364566 136.446357,14.7838549 135.951562,14.6328125 C135.456768,14.4817701 134.907295,14.40625 134.303125,14.40625 C133.636455,14.40625 133.032294,14.518228 132.490625,14.7421875 C131.948956,14.966147 131.469794,15.2656231 131.053125,15.640625 C130.636456,16.0156269 130.277085,16.4453101 129.975,16.9296875 C129.672915,17.4140649 129.433334,17.9114558 129.25625,18.421875 L129.25625,30 L127.396875,30 L127.396875,13.09375 L129.178125,13.09375 Z M143.825,21.390625 C143.825,20.0781184 143.97604,18.8932345 144.278125,17.8359375 C144.58021,16.7786405 145.012497,15.8750037 145.575,15.125 C146.137503,14.3749963 146.822392,13.796877 147.629687,13.390625 C148.436983,12.984373 149.345828,12.78125 150.35625,12.78125 C151.554173,12.78125 152.582808,13.0208309 153.442187,13.5 C154.301567,13.9791691 155.012497,14.6406208 155.575,15.484375 L155.575,6 L157.434375,6 L157.434375,30 L155.684375,30 L155.60625,27.75 C155.043747,28.5520873 154.327608,29.1796852 153.457812,29.6328125 C152.588016,30.0859398 151.543756,30.3125 150.325,30.3125 C149.324995,30.3125 148.423962,30.1015646 147.621875,29.6796875 C146.819788,29.2578104 146.137503,28.6692746 145.575,27.9140625 C145.012497,27.1588504 144.58021,26.2552136 144.278125,25.203125 C143.97604,24.1510364 143.825,22.9895897 143.825,21.71875 L143.825,21.390625 Z M145.715625,21.71875 C145.715625,22.7083383 145.814582,23.6275999 146.0125,24.4765625 C146.210418,25.3255251 146.512498,26.0624969 146.91875,26.6875 C147.325002,27.3125031 147.838018,27.8020816 148.457812,28.15625 C149.077607,28.5104184 149.814579,28.6875 150.66875,28.6875 C151.30417,28.6875 151.879685,28.6119799 152.395312,28.4609375 C152.91094,28.3098951 153.369269,28.0989597 153.770312,27.828125 C154.171356,27.5572903 154.520311,27.2343769 154.817187,26.859375 C155.114064,26.4843731 155.366666,26.0781272 155.575,25.640625 L155.575,17.703125 C155.387499,17.2760395 155.158335,16.8645853 154.8875,16.46875 C154.616665,16.0729147 154.283335,15.7213557 153.8875,15.4140625 C153.491665,15.1067693 153.033336,14.8619801 152.5125,14.6796875 C151.991664,14.4973949 151.387503,14.40625 150.7,14.40625 C149.835412,14.40625 149.090628,14.5859357 148.465625,14.9453125 C147.840622,15.3046893 147.325002,15.7968719 146.91875,16.421875 C146.512498,17.0468781 146.210418,17.7864541 146.0125,18.640625 C145.814582,19.4947959 145.715625,20.4114534 145.715625,21.390625 L145.715625,21.71875 Z"/>
    <path fill="#FC6C17" d="M164.8125,28.375 L176.046875,28.375 L176.046875,30 L162.875,30 L162.875,6 L164.8125,6 L164.8125,28.375 Z M189.56875,30 C189.464583,29.7083319 189.383854,29.3515646 189.326562,28.9296875 C189.269271,28.5078104 189.230208,28.0781272 189.209375,27.640625 C188.928124,28.0052102 188.594794,28.3489567 188.209375,28.671875 C187.823956,28.9947933 187.391669,29.2760405 186.9125,29.515625 C186.433331,29.7552095 185.907295,29.9479159 185.334375,30.09375 C184.761455,30.2395841 184.14167,30.3125 183.475,30.3125 C182.652079,30.3125 181.904691,30.1927095 181.232812,29.953125 C180.560934,29.7135405 179.988023,29.3776063 179.514062,28.9453125 C179.040102,28.5130187 178.672918,28.0052113 178.4125,27.421875 C178.152082,26.8385387 178.021875,26.2031284 178.021875,25.515625 C178.021875,24.6927042 178.198957,23.9505241 178.553125,23.2890625 C178.907293,22.6276009 179.417705,22.0651065 180.084375,21.6015625 C180.751045,21.1380185 181.560933,20.7838554 182.514062,20.5390625 C183.467192,20.2942696 184.537494,20.171875 185.725,20.171875 L189.19375,20.171875 L189.19375,18.25 C189.19375,17.0416606 188.821358,16.0911493 188.076562,15.3984375 C187.331767,14.7057257 186.24584,14.359375 184.81875,14.359375 C184.162497,14.359375 183.558336,14.4479158 183.00625,14.625 C182.454164,14.8020842 181.977606,15.0468734 181.576562,15.359375 C181.175519,15.6718766 180.863022,16.0338521 180.639062,16.4453125 C180.415103,16.8567729 180.303125,17.2968727 180.303125,17.765625 L178.428125,17.75 C178.428125,17.1145802 178.584373,16.500003 178.896875,15.90625 C179.209377,15.312497 179.649476,14.7838565 180.217187,14.3203125 C180.784899,13.8567685 181.467184,13.4843764 182.264062,13.203125 C183.060941,12.9218736 183.943745,12.78125 184.9125,12.78125 C185.808338,12.78125 186.63385,12.8958322 187.389062,13.125 C188.144275,13.3541678 188.792706,13.6979144 189.334375,14.15625 C189.876044,14.6145856 190.297915,15.1874966 190.6,15.875 C190.902085,16.5625034 191.053125,17.3645787 191.053125,18.28125 L191.053125,26.46875 C191.053125,26.7604181 191.063542,27.0624984 191.084375,27.375 C191.105208,27.6875016 191.139062,27.9895819 191.185937,28.28125 C191.232813,28.5729181 191.2875,28.8515612 191.35,29.1171875 C191.4125,29.3828138 191.485416,29.6145823 191.56875,29.8125 L191.56875,30 L189.56875,30 Z M185.576562,28.3984375 C186.15469,28.2265616 186.678123,27.9895848 187.146875,27.6875 C187.615627,27.3854152 188.021873,27.0338562 188.365625,26.6328125 C188.709377,26.2317688 188.985416,25.7968773 189.19375,25.328125 L189.19375,21.609375 L185.990625,21.609375 C185.032287,21.609375 184.175525,21.6953116 183.420312,21.8671875 C182.6651,22.0390634 182.027086,22.2864567 181.50625,22.609375 C180.985414,22.9322933 180.586981,23.3255185 180.310937,23.7890625 C180.034894,24.2526065 179.896875,24.7760387 179.896875,25.359375 C179.896875,25.8177106 179.985416,26.2473938 180.1625,26.6484375 C180.339584,27.0494812 180.592186,27.398436 180.920312,27.6953125 C181.248439,27.992189 181.646873,28.2265616 182.115625,28.3984375 C182.584377,28.5703134 183.110414,28.65625 183.69375,28.65625 C184.370837,28.65625 184.998435,28.5703134 185.576562,28.3984375 Z M209.246875,21.71875 C209.246875,22.9895897 209.103647,24.1510364 208.817187,25.203125 C208.530728,26.2552136 208.111461,27.1588504 207.559375,27.9140625 C207.007289,28.6692746 206.330212,29.2578104 205.528125,29.6796875 C204.726038,30.1015646 203.814588,30.3125 202.79375,30.3125 C201.55416,30.3125 200.494275,30.0781273 199.614062,29.609375 C198.73385,29.1406227 198.012503,28.5000041 197.45,27.6875 L197.371875,30 L195.621875,30 L195.621875,6 L197.48125,6 L197.48125,15.546875 C198.043753,14.6718706 198.757287,13.9921899 199.621875,13.5078125 C200.486463,13.0234351 201.533327,12.78125 202.7625,12.78125 C203.793755,12.78125 204.710413,12.984373 205.5125,13.390625 C206.314587,13.796877 206.994268,14.3749963 207.551562,15.125 C208.108857,15.8750037 208.530728,16.7786405 208.817187,17.8359375 C209.103647,18.8932345 209.246875,20.0781184 209.246875,21.390625 L209.246875,21.71875 Z M207.371875,21.390625 C207.371875,20.4114534 207.278126,19.4947959 207.090625,18.640625 C206.903124,17.7864541 206.608856,17.0468781 206.207812,16.421875 C205.806769,15.7968719 205.293753,15.3046893 204.66875,14.9453125 C204.043747,14.5859357 203.293754,14.40625 202.41875,14.40625 C201.710413,14.40625 201.085419,14.5026032 200.54375,14.6953125 C200.002081,14.8880218 199.533335,15.1458317 199.1375,15.46875 C198.741665,15.7916683 198.408335,16.1614563 198.1375,16.578125 C197.866665,16.9947937 197.647917,17.4270811 197.48125,17.875 L197.48125,25.5 C197.679168,25.9479189 197.926561,26.3671855 198.223437,26.7578125 C198.520314,27.1484395 198.871873,27.4869777 199.278125,27.7734375 C199.684377,28.0598973 200.150518,28.2838534 200.676562,28.4453125 C201.202607,28.6067716 201.793747,28.6875 202.45,28.6875 C203.293754,28.6875 204.025518,28.5104184 204.645312,28.15625 C205.265107,27.8020816 205.778123,27.3125031 206.184375,26.6875 C206.590627,26.0624969 206.890103,25.3255251 207.082812,24.4765625 C207.275522,23.6275999 207.371875,22.7083383 207.371875,21.71875 L207.371875,21.390625 Z"/>
  </g>
</svg>
